<svg width="200" height="200" viewBox="0 0 200 200" xmlns="http://www.w3.org/2000/svg">
  <circle cx="100" cy="100" r="100" fill="white"/>
  
  <!-- City skyline -->
  <g transform="translate(50, 40)">
    <rect x="20" y="30" width="15" height="25" fill="#D4A574"/>
    <rect x="40" y="15" width="20" height="40" fill="#D4A574"/>
    <rect x="65" y="25" width="15" height="30" fill="#D4A574"/>
    <polygon points="47,15 50,5 53,15" fill="#D4A574"/>
  </g>
  
  <!-- Car -->
  <g transform="translate(30, 80)">
    <ellipse cx="70" cy="35" rx="65" ry="20" fill="#C53030"/>
    <rect x="15" y="20" width="110" height="25" rx="12" fill="#C53030"/>
    <rect x="25" y="15" width="25" height="15" rx="8" fill="white"/>
    <rect x="60" y="15" width="35" height="15" rx="8" fill="white"/>
    <rect x="100" y="15" width="25" height="15" rx="8" fill="white"/>
    <ellipse cx="35" cy="45" rx="8" ry="8" fill="white"/>
    <ellipse cx="105" cy="45" rx="8" ry="8" fill="white"/>
    <ellipse cx="35" cy="45" rx="5" ry="5" fill="#C53030"/>
    <ellipse cx="105" cy="45" rx="5" ry="5" fill="#C53030"/>
  </g>
  
  <!-- Key -->
  <g transform="translate(130, 70)">
    <ellipse cx="15" cy="15" rx="12" ry="8" fill="#C53030"/>
    <ellipse cx="15" cy="15" rx="6" ry="4" fill="white"/>
    <rect x="25" y="12" width="25" height="6" fill="#C53030"/>
    <rect x="45" y="10" width="3" height="4" fill="#C53030"/>
    <rect x="45" y="16" width="3" height="4" fill="#C53030"/>
  </g>
  
  <!-- Text -->
  <text x="100" y="130" text-anchor="middle" font-family="Arial, sans-serif" font-size="24" font-weight="bold" fill="#C53030">CITY</text>
  <text x="100" y="155" text-anchor="middle" font-family="Arial, sans-serif" font-size="18" font-weight="bold" fill="#D4A574">RENTAL CAR</text>
</svg>
